HIERARCHY
ROOT Hips
{
  OFFSET 0 89.5177 0.535
  CHANNELS 6 Xposition Yposition Zposition Zrotation Xrotation Yrotation
  JOINT Spine
  {
    OFFSET 12.0259 -0.162855 1.69034e-005
    CHANNELS 3 Zrotation Xrotation Yrotation
    JOINT Spine1
    {
      OFFSET 15.3169 -0.0121922 0
      CHANNELS 3 Zrotation Xrotation Yrotation
      JOINT Spine2
      {
        OFFSET 15.3176 -0.0121908 0
        CHANNELS 3 Zrotation Xrotation Yrotation
        JOINT Neck
        {
          OFFSET 19.9142 1.56338 0
          CHANNELS 3 Zrotation Xrotation Yrotation
          JOINT Head
          {
            OFFSET 6.92651 0 0
            CHANNELS 3 Zrotation Xrotation Yrotation
            End Site
            {
              OFFSET 20.7666 0 0
            }
          }
          JOINT LeftShoulder
          {
            OFFSET -6.20654 0.708824 7.28219
            CHANNELS 3 Zrotation Xrotation Yrotation
            JOINT LeftArm
            {
              OFFSET 14.108 0 -1.52588e-005
              CHANNELS 3 Zrotation Xrotation Yrotation
              JOINT LeftForeArm
              {
                OFFSET 28.5802 0 0
                CHANNELS 3 Zrotation Xrotation Yrotation
                JOINT LeftHand
                {
                  OFFSET 27.092 0 0
                  CHANNELS 3 Zrotation Xrotation Yrotation
                  End Site
                  {
                    OFFSET 9.55928 -0.186424 0.145352
                  }
                }
              }
            }
          }
          JOINT RightShoulder
          {
            OFFSET -6.20654 0.708866 -7.28218
            CHANNELS 3 Zrotation Xrotation Yrotation
            JOINT RightArm
            {
              OFFSET 14.108 0 1.52588e-005
              CHANNELS 3 Zrotation Xrotation Yrotation
              JOINT RightForeArm
              {
                OFFSET 28.5802 0 0
                CHANNELS 3 Zrotation Xrotation Yrotation
                JOINT RightHand
                {
                  OFFSET 27.092 0 0
                  CHANNELS 3 Zrotation Xrotation Yrotation
                  End Site
                  {
                    OFFSET 9.55929 -0.186417 -0.145354
                  }
                }
              }
            }
          }
        }
      }
    }
  }
  JOINT LeftUpLeg
  {
    OFFSET 0.005 -0.535 8.837
    CHANNELS 3 Zrotation Xrotation Yrotation
    JOINT LeftLeg
    {
      OFFSET 39.9035 0 0
      CHANNELS 3 Zrotation Xrotation Yrotation
      JOINT LeftFoot
      {
        OFFSET 39.6689 0 0
        CHANNELS 3 Zrotation Xrotation Yrotation
        JOINT LeftToe
        {
          OFFSET 10.1624 13.6296 0
          CHANNELS 3 Zrotation Xrotation Yrotation
          End Site
          {
            OFFSET 8.38147 0 0
          }
        }
      }
    }
  }
  JOINT RightUpLeg
  {
    OFFSET 0.005 -0.535 -8.837
    CHANNELS 3 Zrotation Xrotation Yrotation
    JOINT RightLeg
    {
      OFFSET 39.9035 0 0
      CHANNELS 3 Zrotation Xrotation Yrotation
      JOINT RightFoot
      {
        OFFSET 39.6689 0 0
        CHANNELS 3 Zrotation Xrotation Yrotation
        JOINT RightToe
        {
          OFFSET 10.1624 13.6296 0
          CHANNELS 3 Zrotation Xrotation Yrotation
          End Site
          {
            OFFSET 8.38147 0 0
          }
        }
      }
    }
  }
}
MOTION
Frames:	11
Frame Time:	0.0333333
379.472 81.7206 -53.2955 -106.25 -46.7308 156.785 -0.870827 -0.189172 0.401751 -1.74032 -0.383958 0.800768 -1.74032 -0.383958 0.800759 -8.30589e-012 -9.0191e-006 -5.27751e-005 4.84627 16.7176 -12.8961 -178.573 -6.64437 -77.846 -10.4386 32.0254 59.411 -94.3621 -3.18055e-015 -0 -50.6961 -48.6236 -41.2579 -177.231 9.03773 72.8858 -12.9929 -25.4928 -52.3292 -86.5458 3.18055e-015 4.77083e-015 -50.4854 46.6605 44.8884 -18.4768 -3.04702 -170.742 -74.9012 4.77083e-015 3.18055e-015 -5.27777 4.00894 -7.92388 90 6.36111e-015 2.38542e-015 -30.4555 -8.31805 -172.399 -45.3969 -1.27222e-014 -0 24.9777 -3.35844 2.52866 90 1.98785e-016 -0 
384.103 82.2151 -57.653 -108.524 -50.4953 156.176 -1.0771 0.51892 0.0499868 -2.15479 1.03727 0.10991 -2.15479 1.03727 0.109901 -8.30748e-012 -9.0191e-006 -5.27751e-005 5.83669 17.8451 -14.6502 -178.214 -7.23934 -76.0979 -10.3161 30.2107 61.551 -86.398 3.18055e-015 -3.18055e-015 -48.844 -39.7862 -37.8152 -177.609 7.69264 72.674 -12.9774 -21.7296 -55.6242 -78.5983 0 3.18055e-015 -44.7269 44.0137 39.3117 -25.7089 -6.6452 -174.768 -77.3423 -4.77083e-015 -6.36111e-015 0.0569525 3.8144 -7.57634 90 -3.18055e-015 -1.59028e-015 -24.9698 -10.0835 -173.746 -44.1442 0 -3.18056e-015 27.7481 -2.51548 0.57721 90 0 -6.36111e-015 
388.827 83.9074 -62.4029 -109.394 -53.7615 157.149 -1.11503 1.79143 -0.548729 -2.21447 3.59359 -1.06306 -2.21446 3.59359 -1.06307 -8.30748e-012 -9.0191e-006 -5.27751e-005 5.82634 17.5951 -15.0254 -177.851 -8.14805 -75.1669 -8.93099 30.8663 61.4216 -86.1364 0 9.54166e-015 -46.2375 -41.7858 -36.3348 -177.374 8.18072 72.1332 -12.9581 -20.8405 -59.1386 -77.1617 3.18055e-015 -2.38542e-015 -40.2985 42.2682 34.5485 -30.0462 -7.7407 -179.55 -73.5228 -3.18055e-015 -0 7.14828 4.33876 -5.4516 90 -3.18055e-015 -0 -17.8216 -10.2793 -174.865 -40.3274 -3.18056e-015 -3.18056e-015 26.2166 -1.38051 0.376814 90 -3.97569e-016 -9.54166e-015 
393.554 86.097 -67.5813 -110.703 -55.8688 158.062 -1.20835 3.17194 -1.33688 -2.34759 6.37106 -2.61223 -2.34759 6.37106 -2.61224 -8.30271e-012 -9.0191e-006 -5.27751e-005 5.11214 17.7859 -15.0985 -177.751 -9.13281 -76.0999 -7.22429 32.9605 60.1518 -88.7085 0 -0 -47.6927 -43.7184 -38.8095 -177.364 8.49922 72.6975 -15.5654 -22.0707 -63.8848 -78.6973 -2.78299e-015 5.96354e-016 -41.6068 40.446 33.5884 -32.3163 -6.35584 176.176 -63.6502 -3.18055e-015 -0 11.876 4.26883 -0.70543 90 -3.18055e-015 -0 -11.801 -10.3533 -176.283 -36.3787 -3.18056e-015 -0 20.7948 -1.1823 0.406067 90 0 -0 
398.312 88.214 -73.1473 -113.139 -58.41 157.401 -1.32775 4.01521 -1.90618 -2.52994 8.07195 -3.73208 -2.52994 8.07195 -3.73209 -8.30907e-012 -9.0191e-006 -5.27751e-005 5.25118 19.5395 -16.5915 -177.452 -10.4363 -76.1973 -3.14534 34.5877 56.6777 -91.4411 3.18055e-015 3.18055e-015 -49.0965 -47.0777 -41.7905 -177.881 7.60347 74.3752 -20.0484 -23.4096 -68.5667 -81.0603 -3.18055e-015 1.59028e-015 -44.5447 42.2223 36.2461 -33.1448 -4.94011 173.249 -49.3406 -9.54166e-015 -0 10.3139 4.36095 -2.04692 90 1.59028e-015 3.18055e-015 -5.62875 -12.4398 -177.249 -30.9296 -6.36111e-015 -3.18056e-015 12.9523 -3.11572 0.327545 90 4.77083e-015 -9.54166e-015 
403.035 89.6057 -78.7065 -116.87 -61.2106 154.87 -1.55126 4.43273 -2.27722 -2.93744 8.92276 -4.45297 -2.93743 8.92276 -4.45298 -8.30748e-012 -9.0191e-006 -5.27751e-005 6.56242 22.0879 -18.7605 -177.201 -11.6825 -76.4248 2.04742 35.1862 52.838 -93.0257 4.77083e-015 -0 -48.723 -50.8843 -42.3312 -178.404 6.40863 75.9876 -24.5861 -23.9302 -71.765 -83.8843 -1.59028e-015 -0 -45.1997 46.0853 38.0997 -32.6739 -3.23343 171.358 -32.5637 6.36111e-015 1.59028e-015 3.43743 5.25481 -8.91822 90 4.77083e-015 3.18055e-015 -0.290952 -14.132 -177.513 -25.9695 6.36111e-015 -6.36111e-015 5.37844 -6.67979 2.08992 90 4.77083e-015 -0 
407.854 89.67 -84.1352 -120.076 -62.9502 151.319 -1.88514 4.75297 -2.35163 -3.59113 9.57765 -4.56832 -3.59112 9.57765 -4.56833 -8.30669e-012 -9.0191e-006 -5.27751e-005 7.78834 25.1831 -20.2267 -177.178 -13.1905 -77.8099 6.86538 35.0077 49.9334 -93.7889 -2.38542e-015 -1.19271e-015 -46.0139 -53.0755 -39.2906 -178.593 6.05445 76.8964 -28.922 -23.0259 -73.0173 -86.6137 0 -9.54166e-015 -43.7201 51.8788 38.4973 -31.4045 4.19034 171.475 -19.2919 -3.18055e-015 -0 -4.76548 7.60427 -15.1807 90 -3.18055e-015 -0 1.02521 -11.7469 -177.516 -28.301 -9.54167e-015 3.18056e-015 0.132794 -8.80307 11.1629 90 6.36111e-015 -3.18055e-015 
412.456 88.5292 -89.461 -121.598 -64.5197 148.254 -2.13323 4.90062 -2.02098 -4.11395 9.87097 -3.87818 -4.11395 9.87097 -3.87818 -8.30748e-012 -9.0191e-006 -5.27751e-005 9.54277 28.7081 -22.5734 -177.262 -14.3889 -79.1067 11.771 34.3074 47.7586 -94.105 5.96354e-016 -1.19271e-015 -42.7873 -53.7072 -35.5258 -178.8 5.71505 78.1205 -32.2483 -20.9842 -72.8598 -88.5749 4.77083e-015 6.36111e-015 -42.3685 57.6941 38.6424 -30.8703 17.0766 172.149 -15.2995 -2.38542e-015 -5.77718e-016 -7.93444 10.1557 -20.2438 90 1.19271e-014 4.77083e-015 1.67468 -8.41339 -176.602 -32.2206 9.54167e-015 3.18056e-015 -6.39702 -10.8397 20.2825 90 -3.18055e-015 6.36111e-015 
416.774 86.4797 -94.585 -123.898 -67.2041 144.906 -2.21664 4.70901 -1.71316 -4.31274 9.47951 -3.25816 -4.31274 9.47951 -3.25816 -8.30708e-012 -9.0191e-006 -5.27751e-005 10.3666 32.438 -24.6123 -177.538 -14.7869 -80.4378 16.5333 32.65 46.7761 -93.2031 -2.38542e-015 -4.77083e-015 -39.8676 -52.7397 -32.0214 -178.963 5.40504 79.1211 -34.3117 -18.0373 -71.361 -89.141 2.38542e-015 -3.18055e-015 -42.0175 63.3125 39.7024 -30.9447 20.7462 170.575 -18.0965 -9.93923e-016 6.02566e-015 -2.65434 8.4018 -13.4316 90 -9.93923e-016 6.36111e-015 0.910364 -9.46123 -176.73 -39.5186 -3.18056e-015 3.18056e-015 -11.7891 -11.4469 23.6762 90 -6.36111e-015 6.36111e-015 
420.806 83.9879 -99.5367 -125.558 -70.657 143.321 -2.02551 4.46209 -1.63635 -3.94016 8.97819 -3.12719 -3.94016 8.97819 -3.1272 -8.30808e-012 -9.0191e-006 -5.27751e-005 10.4232 35.9487 -25.8622 -177.711 -14.3398 -80.8324 20.7284 29.642 45.7919 -91.2607 -1.59028e-015 -1.59028e-015 -39.2714 -51.5403 -31.7242 -178.967 5.39539 79.1469 -35.101 -14.5165 -68.8856 -88.0506 1.98785e-016 1.27222e-014 -41.8862 66.9063 40.3241 -33.8531 12.055 167.402 -28.8052 0 4.17448e-015 4.61697 4.97111 0.719944 90 1.59028e-015 1.59028e-015 -1.68512 -14.4658 -179.751 -51.1747 6.36111e-015 -9.54167e-015 -12.3739 -8.57417 17.4638 90 -6.36111e-015 -6.36111e-015 
424.329 81.4637 -103.983 -127.85 -73.9304 142.516 -1.71808 4.32146 -1.90043 -3.30536 8.69632 -3.68544 -3.30535 8.69632 -3.68545 -8.30748e-012 -9.0191e-006 -5.27751e-005 11.1928 39.4965 -27.7479 -177.449 -14.2688 -79.7533 21.73 24.0169 45.0933 -87.2788 -1.59028e-015 1.59028e-015 -39.2163 -49.9402 -32.3267 -178.914 5.25394 78.3046 -34.0472 -10.2069 -66.954 -84.2152 1.19271e-015 -3.18055e-015 -40.5665 68.558 39.1764 -34.7425 5.06635 162.864 -38.8426 0 2.38542e-015 14.8012 1.04386 13.6459 90 8.94531e-016 3.18055e-015 -8.04513 -18.1587 174.46 -64.5059 0 3.18056e-015 -11.8845 -2.51834 5.17445 90 0 -1.59028e-015 
